<svg width="1140" height="500" viewBox="0 0 1140 500" fill="none" xmlns="http://www.w3.org/2000/svg">
<rect width="1140" height="500" fill="#71659C"/>
<path d="M0 0H1140V500H0V0Z" fill="#F3F3F3"/>
<path d="M398.026 95.1817L399.768 91.9886L398.143 88.7374C397.949 88.3697 398.278 87.9439 398.684 88.0213L402.245 88.6987L404.819 86.1441C405.109 85.8539 405.613 86.028 405.671 86.4344L406.116 90.034L409.348 91.6983C409.715 91.8918 409.715 92.4143 409.328 92.5885L406.058 94.1367L405.477 97.7169C405.419 98.1233 404.916 98.2781 404.626 97.9878L402.129 95.3365L398.549 95.8978C398.143 95.9752 397.833 95.5301 398.026 95.1817Z" fill="#F7CC7F"/>
<path d="M587.622 110.296L589.112 107.877L587.912 107.393C587.661 107.296 587.525 106.987 587.622 106.735C587.719 106.484 588.028 106.348 588.28 106.445L589.654 107.006L590.989 104.839L589.712 104.316C589.46 104.219 589.325 103.91 589.422 103.658C589.518 103.407 589.828 103.271 590.08 103.368L591.531 103.948L593.079 101.471C593.215 101.258 593.466 101.181 593.699 101.278L593.912 101.375C594.202 101.491 594.318 101.839 594.163 102.11L592.731 104.452L594.84 105.303L596.389 102.826C596.524 102.613 596.776 102.536 597.008 102.632L597.259 102.729C597.55 102.845 597.666 103.194 597.511 103.465L596.079 105.806L597.279 106.29C597.53 106.387 597.666 106.696 597.55 106.948C597.453 107.2 597.143 107.335 596.892 107.238L595.518 106.677L594.221 108.845L595.498 109.367C595.75 109.464 595.885 109.773 595.789 110.025C595.692 110.277 595.382 110.412 595.131 110.296L593.679 109.715L592.112 112.27C591.976 112.483 591.725 112.56 591.492 112.483L591.241 112.386C590.951 112.27 590.834 111.922 590.989 111.651L592.479 109.232L590.37 108.38L588.802 110.935C588.667 111.147 588.415 111.225 588.183 111.147L587.932 111.051C587.583 110.915 587.467 110.567 587.622 110.296ZM593.002 108.361L594.337 106.193L592.228 105.342L590.893 107.509L593.002 108.361Z" fill="#07345A"/>
<path d="M578.101 152.233L576.088 162.915C576.262 163.457 576.785 163.593 578.062 163.96C580.365 164.599 582.668 165.238 584.951 165.973C585.319 166.089 585.706 166.592 585.803 166.96C586.306 169.244 586.654 171.566 587.177 173.85C587.332 174.566 587.312 174.953 586.712 175.417C584.313 177.314 581.971 179.268 579.629 181.184C580.539 183.816 584.371 189.544 586.248 191.054C588.802 189.641 591.415 188.248 593.989 186.738C594.782 186.274 595.227 186.293 596.002 186.893C597.782 188.267 599.717 189.486 601.652 190.667C602.427 191.151 602.872 191.538 602.736 192.563C602.407 195.215 602.233 197.866 601.943 200.517C601.865 201.233 602.039 201.659 602.756 201.794C606.103 202.452 609.432 203.11 612.78 203.749C613.593 203.904 613.651 203.246 613.806 202.762C614.56 200.285 615.315 197.808 615.993 195.311C616.244 194.363 616.67 194.034 617.657 193.899C620.25 193.55 622.805 193.008 625.572 192.525C627.488 194.847 629.597 197.421 631.784 200.072C635.403 198.427 638.596 196.202 641.538 193.395C639.951 190.473 638.345 187.57 636.951 184.997C638.616 182.365 640.202 179.946 641.654 177.468C642.08 176.752 642.447 176.598 643.202 176.675C645.815 176.965 648.427 177.178 651.059 177.449C651.62 177.507 652.027 177.488 652.259 176.849C653.362 173.637 654.175 170.385 654.291 166.979C654.31 166.225 654.02 165.954 653.362 165.76C650.769 165.005 648.176 164.193 645.582 163.438C644.944 163.264 644.673 163.032 644.537 162.296C644.073 159.761 643.512 157.245 642.873 154.749C642.718 154.11 642.892 153.839 643.318 153.491C645.679 151.556 648.021 149.582 650.44 147.588C648.737 144.027 646.685 140.776 643.937 137.873C640.957 139.499 638.016 141.125 635.19 142.653C632.481 140.854 629.849 139.112 627.043 137.235C627.256 134.912 627.527 132.222 627.739 129.533C627.914 127.326 628.262 127.578 625.998 126.901C625.785 126.843 625.591 126.688 625.378 126.591C623.366 126.223 621.373 125.836 619.36 125.469C618.895 125.469 618.431 125.527 617.986 125.449C616.844 125.217 616.244 125.527 615.915 126.765C615.257 129.339 614.444 131.893 613.612 134.429C613.496 134.758 613.07 135.145 612.741 135.222C610.496 135.745 608.213 136.093 606.007 136.732C604.923 137.041 604.439 136.79 603.801 135.996C602.001 133.732 600.104 131.526 598.072 129.087C594.782 131.294 591.57 133.442 588.319 135.609C588.667 136.267 588.86 136.654 589.054 137.022C590.312 139.325 591.55 141.647 592.866 143.931C593.234 144.569 593.118 144.976 592.712 145.576C591.318 147.646 590.06 149.814 588.667 151.885C588.454 152.214 587.873 152.484 587.467 152.446C585.319 152.31 583.171 152.039 581.023 151.865C579.242 151.672 578.584 151.633 578.101 152.233ZM597.956 161.232C599.756 151.691 608.948 145.401 618.489 147.201C628.03 149.001 634.319 158.193 632.52 167.734C630.72 177.275 621.527 183.564 611.987 181.765C602.446 179.965 596.156 170.772 597.956 161.232Z" fill="#F47458"/>
<path d="M508.316 93.7303L514.625 94.4851L511.935 89.5696L508.316 93.7303Z" fill="#355389"/>
<path d="M531.519 148.188C531.326 150.317 533.164 152.271 535.196 152.639C537.306 153.007 539.183 151.633 539.918 149.697C541.35 145.866 537.151 142.847 534.886 145.169C532.758 147.336 533.435 150.549 535.719 150.549C536.589 150.549 537.983 149.833 537.422 148.768C537.306 148.536 536.957 148.556 536.822 148.768C536.551 149.233 536.57 149.252 536.435 149.368C536.222 149.543 535.951 149.581 535.68 149.581C533.338 149.543 534.906 144.201 537.654 145.498C539.163 146.214 539.608 147.936 539.086 149.426C538.583 150.878 537.228 151.981 535.661 151.884C533.783 151.768 532.216 150.046 532.1 148.207C532.08 147.82 531.558 147.84 531.519 148.188Z" fill="#F47458"/>
<path d="M740.061 121.927L741.957 122.74C741.957 122.74 745.112 122.043 745.46 121.443C745.808 120.843 746.021 119.353 746.466 119.353C746.911 119.353 747.744 119.566 747.86 120.611C747.937 121.366 746.66 123.437 746.815 123.688C746.911 123.843 747.976 124.346 748.769 124.695C749.292 124.927 749.64 125.43 749.679 125.991C749.698 126.378 749.466 126.727 749.079 126.823L748.498 126.978L748.634 127.559C748.731 128.004 748.46 128.43 748.034 128.526L747.589 128.623L747.705 128.991C747.84 129.455 747.55 129.939 747.086 130.036L746.698 130.113V130.21C746.737 130.636 746.428 131.003 746.021 131.081L745.634 131.139L740.602 128.971C740.138 128.778 739.712 128.468 739.345 128.101L737.7 127.056C737.525 126.939 737.448 126.707 737.545 126.533L739.499 122.14C739.616 121.927 739.848 121.83 740.061 121.927Z" fill="#50BFA5"/>
<path d="M593.853 159.141H559.696C556.194 159.141 553.368 161.967 553.368 165.47V176.655C553.368 180.158 556.194 182.984 559.696 182.984H593.853C597.356 182.984 600.182 180.158 600.182 176.655V165.47C600.201 161.967 597.356 159.141 593.853 159.141Z" fill="#5184CE"/>
<path d="M548.627 394.215L512.438 410.897V414.593H641.267V410.897L604.768 394.215H548.627Z" fill="#466EB6"/>
<path d="M604.807 322.747H548.627V394.235H604.807V322.747Z" fill="#466EB6"/>
<path d="M746.68 345.176V183.971C746.68 176.307 740.468 170.095 732.804 170.095H420.224C412.56 170.095 406.348 176.307 406.348 183.971V345.196H746.68V345.176Z" fill="#466EB6"/>
<path opacity="0.3" d="M641.267 410.897H512.438V414.593H641.267V410.897Z" fill="#184655"/>
<path opacity="0.3" d="M604.788 385.836H548.627V394.235H604.788V385.836Z" fill="#184655"/>
<path d="M406.367 345.176V371.011C406.367 376.391 409.928 380.746 414.302 380.746H738.764C743.138 380.746 746.699 376.391 746.699 371.011V345.176H406.367Z" fill="#5184CE"/>
<path d="M580.21 165.47C580.21 167.212 578.798 168.624 577.056 168.624C575.314 168.624 573.901 167.212 573.901 165.47C573.901 163.728 575.314 162.315 577.056 162.315C578.798 162.315 580.21 163.728 580.21 165.47Z" fill="#184655"/>
<path d="M738.726 338.19V184.396C738.726 180.371 735.339 177.101 731.159 177.101H421.888C417.708 177.101 414.321 180.371 414.321 184.396V338.19H738.726V338.19Z" fill="#CCE6FF"/>
<path d="M623.54 189.505H428.564V325.553H623.54V189.505Z" fill="#E9FFFF"/>
<path d="M623.54 189.505H428.564V205.432H623.54V189.505Z" fill="#5184CE"/>
<path opacity="0.6" d="M706.252 223.546H692.938V326.559H706.252V223.546Z" fill="#9BC1F9"/>
<path opacity="0.6" d="M687.654 254.975H674.34V326.56H687.654V254.975Z" fill="#9BC1F9"/>
<path opacity="0.6" d="M725.101 245.86H711.787V326.559H725.101V245.86Z" fill="#9BC1F9"/>
<path opacity="0.6" d="M669.076 242.686H655.762V326.559H669.076V242.686Z" fill="#9BC1F9"/>
<path opacity="0.6" d="M650.498 267.554H637.184V326.559H650.498V267.554Z" fill="#9BC1F9"/>
<path opacity="0.3" d="M706.252 247.292H692.938V326.559H706.252V247.292Z" fill="#9BC1F9"/>
<path opacity="0.3" d="M687.655 271.463H674.34V326.559H687.655V271.463Z" fill="#9BC1F9"/>
<path opacity="0.3" d="M725.101 264.458H711.787V326.56H725.101V264.458Z" fill="#9BC1F9"/>
<path opacity="0.3" d="M669.076 262.019H655.762V326.559H669.076V262.019Z" fill="#9BC1F9"/>
<path opacity="0.3" d="M650.498 281.159H637.184V326.559H650.498V281.159Z" fill="#9BC1F9"/>
<path opacity="0.6" d="M615.257 211.993H435.299V235.1H615.257V211.993Z" fill="#9BC1F9"/>
<path opacity="0.6" d="M615.257 241.66H499.433V247.582H615.257V241.66Z" fill="#9BC1F9"/>
<path d="M492.273 241.66H435.299V309.974H492.273V241.66Z" fill="#5184CE"/>
<path opacity="0.6" d="M615.257 254.143H499.433V260.065H615.257V254.143Z" fill="#9BC1F9"/>
<path opacity="0.6" d="M615.257 291.57H499.433V297.492H615.257V291.57Z" fill="#9BC1F9"/>
<path opacity="0.6" d="M615.257 304.052H499.433V309.974H615.257V304.052Z" fill="#9BC1F9"/>
<path d="M353.942 266.16L462.122 265.967C463.747 265.967 465.063 267.283 465.063 268.908L465.315 411.458C465.315 413.084 463.999 414.4 462.373 414.4L354.193 414.593C352.568 414.593 351.252 413.277 351.252 411.652L351 269.102C351.019 267.476 352.335 266.16 353.942 266.16Z" fill="#F7CC7F"/>
<path d="M459.151 270.113L356.951 270.297L357.202 409.635L459.402 409.451L459.151 270.113Z" fill="white"/>
<path d="M430.19 264.051C430.19 263.432 429.687 262.909 429.048 262.909L386.144 262.987C385.525 262.987 385.002 263.49 385.002 264.128V268.579L430.19 268.502V264.051Z" fill="#13375B"/>
<path d="M407.587 257.529C403.852 257.529 400.833 260.568 400.833 264.303C400.833 268.038 403.871 271.057 407.606 271.057C411.341 271.057 414.36 268.018 414.36 264.283C414.36 260.548 411.341 257.529 407.587 257.529ZM407.606 268.638C405.206 268.638 403.271 266.702 403.252 264.303C403.252 261.903 405.187 259.968 407.587 259.948C409.986 259.948 411.922 261.884 411.941 264.283C411.96 266.683 410.006 268.638 407.606 268.638Z" fill="#13375B"/>
<path d="M429.493 263.007C429.9 263.181 430.19 263.587 430.19 264.052V268.503L385.002 268.58C385.002 271.677 387.518 274.173 390.614 274.173L424.597 274.115C427.694 274.115 430.19 271.599 430.19 268.503V264.052C430.19 263.587 429.9 263.181 429.493 263.007Z" fill="#355389"/>
<path d="M386.144 262.987C385.757 262.987 385.409 263.18 385.196 263.49C385.409 263.2 385.757 263.006 386.144 262.987Z" fill="#9BC1F9"/>
<path d="M385.06 263.8C385.08 263.722 385.118 263.664 385.138 263.587C385.118 263.664 385.099 263.722 385.06 263.8Z" fill="#9BC1F9"/>
<path d="M447.433 311.213L432.899 311.232L432.88 296.699L447.414 296.679L447.433 311.213ZM433.499 310.652L446.833 310.632L446.814 297.298L433.48 297.318L433.499 310.652Z" fill="#184655"/>
<path d="M447.472 335.384L432.938 335.404L432.919 320.87L447.453 320.851L447.472 335.384ZM433.538 334.823L446.872 334.804L446.853 321.47L433.519 321.489L433.538 334.823Z" fill="#184655"/>
<path d="M447.511 359.555L432.977 359.575L432.958 345.041L447.491 345.021L447.511 359.555ZM433.577 358.994L446.911 358.975L446.891 345.641L433.557 345.66L433.577 358.994Z" fill="#184655"/>
<path d="M447.569 383.727L433.035 383.746L433.016 369.212L447.549 369.193L447.569 383.727ZM433.635 383.165L446.969 383.146L446.949 369.812L433.616 369.832L433.635 383.165Z" fill="#184655"/>
<path d="M426.802 297.01L364.622 297.123L364.626 299.213L426.805 299.101L426.802 297.01Z" fill="#9BC1F9"/>
<path d="M426.802 302.932L364.622 303.044L364.626 305.134L426.805 305.022L426.802 302.932Z" fill="#9BC1F9"/>
<path d="M426.821 308.854L364.642 308.966L364.646 311.056L426.825 310.944L426.821 308.854Z" fill="#9BC1F9"/>
<path d="M426.84 322.014L364.661 322.125L364.665 324.216L426.844 324.104L426.84 322.014Z" fill="#9BC1F9"/>
<path d="M426.86 327.935L364.681 328.047L364.684 330.137L426.864 330.026L426.86 327.935Z" fill="#9BC1F9"/>
<path d="M426.86 333.857L364.681 333.969L364.684 336.059L426.864 335.947L426.86 333.857Z" fill="#9BC1F9"/>
<path d="M426.879 345.702L364.7 345.813L364.703 347.904L426.883 347.792L426.879 345.702Z" fill="#9BC1F9"/>
<path d="M426.899 351.623L364.719 351.735L364.723 353.825L426.902 353.714L426.899 351.623Z" fill="#9BC1F9"/>
<path d="M426.899 357.545L364.719 357.657L364.723 359.747L426.902 359.635L426.899 357.545Z" fill="#9BC1F9"/>
<path d="M426.918 369.389L364.739 369.501L364.743 371.591L426.922 371.479L426.918 369.389Z" fill="#9BC1F9"/>
<path d="M426.937 375.31L364.758 375.422L364.762 377.512L426.941 377.401L426.937 375.31Z" fill="#9BC1F9"/>
<path d="M426.957 381.232L364.777 381.344L364.781 383.434L426.96 383.322L426.957 381.232Z" fill="#9BC1F9"/>
<path d="M436.516 396.531L364.796 396.661L364.8 398.751L436.52 398.621L436.516 396.531Z" fill="#9BC1F9"/>
<path d="M450.663 401.57L364.796 401.725L364.8 403.815L450.667 403.66L450.663 401.57Z" fill="#9BC1F9"/>
<path d="M440.098 308.832L435.589 301.091L437.196 300.163L439.808 304.652L444.085 294.396L445.807 295.112L440.098 308.832Z" fill="#F47458"/>
<path d="M440.137 333.333L435.628 325.592L437.234 324.643L439.866 329.133L444.143 318.876L445.866 319.612L440.137 333.333Z" fill="#F47458"/>
<path d="M440.234 381.211L435.706 373.47L437.331 372.521L439.944 377.011L444.221 366.754L445.943 367.49L440.234 381.211Z" fill="#F47458"/>
<path d="M445.246 348.641L443.95 347.325L440.234 351.002L436.519 347.344L435.222 348.66L438.918 352.318L435.222 355.975L436.538 357.291L440.234 353.614L443.969 357.272L445.266 355.956L441.55 352.298L445.246 348.641Z" fill="#F47458"/>
<path d="M386.337 290.274V283.307H383.57V282.708H389.995V283.307H387.228V290.274H386.337Z" fill="#184655"/>
<path d="M397.078 289.674V290.274H391.505V282.708H396.885V283.307H392.375V285.959H395.627V286.559H392.375V289.655H397.078V289.674Z" fill="#184655"/>
<path d="M397.969 288.474L398.723 288.222C398.975 288.764 399.304 289.151 399.691 289.422C400.078 289.674 400.562 289.809 401.142 289.809C401.742 289.809 402.207 289.674 402.574 289.403C402.942 289.132 403.116 288.783 403.116 288.338C403.116 287.99 403 287.7 402.768 287.467C402.536 287.235 402.129 287.042 401.568 286.848C401.258 286.751 400.852 286.635 400.349 286.48C399.846 286.326 399.517 286.229 399.362 286.171C398.917 285.958 398.588 285.726 398.394 285.493C398.201 285.261 398.104 284.952 398.104 284.603C398.104 283.984 398.336 283.481 398.82 283.113C399.304 282.745 399.962 282.571 400.794 282.571C401.529 282.571 402.149 282.726 402.632 283.016C403.116 283.307 403.484 283.771 403.736 284.371L403 284.565C402.768 284.1 402.478 283.752 402.11 283.52C401.742 283.287 401.297 283.191 400.755 283.191C400.233 283.191 399.807 283.307 399.497 283.558C399.168 283.81 399.014 284.119 399.014 284.507C399.014 284.797 399.11 285.048 399.323 285.242C399.536 285.435 399.865 285.61 400.291 285.726C400.465 285.784 400.697 285.842 401.026 285.939C401.955 286.19 402.536 286.384 402.807 286.539C403.232 286.771 403.542 287.003 403.736 287.274C403.929 287.545 404.026 287.854 404.026 288.222C404.026 288.88 403.774 289.403 403.252 289.809C402.729 290.196 402.033 290.39 401.142 290.39C400.349 290.39 399.691 290.235 399.188 289.925C398.685 289.616 398.278 289.132 397.969 288.474Z" fill="#184655"/>
<path d="M407.625 290.274V283.307H404.858V282.708H411.283V283.307H408.516V290.274H407.625Z" fill="#184655"/>
<path d="M412.928 290.274V282.708H413.799V290.274H412.928Z" fill="#184655"/>
<path d="M417.282 283.267V290.292H416.431V282.726H417.843L422.333 289.112V282.726H423.185V290.292H422.256L417.282 283.267Z" fill="#184655"/>
<path d="M431.138 289.422C430.829 289.751 430.461 290.002 430.035 290.177C429.61 290.351 429.106 290.428 428.545 290.428C427.384 290.428 426.494 290.099 425.894 289.422C425.294 288.745 424.984 287.777 424.984 286.5C424.984 285.242 425.294 284.274 425.913 283.577C426.533 282.9 427.403 282.552 428.545 282.552C429.377 282.552 430.055 282.726 430.558 283.094C431.061 283.461 431.429 284.023 431.68 284.797L430.868 284.932C430.674 284.313 430.384 283.868 429.997 283.577C429.61 283.287 429.126 283.152 428.545 283.152C427.694 283.152 427.055 283.442 426.591 284.003C426.126 284.564 425.894 285.377 425.894 286.403C425.894 287.525 426.126 288.357 426.591 288.938C427.055 289.499 427.752 289.79 428.681 289.79C429.377 289.79 429.939 289.635 430.345 289.306C430.771 288.977 430.984 288.551 430.984 288.028V287.216H428.661V286.654H431.932V290.254H431.158V289.422H431.138Z" fill="#184655"/>
<path d="M541.118 102.807L539.145 110.489L545.182 107.103L563.219 100.446L549.924 100.078C549.924 100.078 543.034 100.91 542.628 101.181C542.222 101.491 541.118 102.807 541.118 102.807Z" fill="#50BFA5"/>
<path d="M535.855 97.3877L563.2 100.465L541.119 102.806L535.855 97.3877Z" fill="#96D9C9"/>
<path d="M548.956 111.728L542.493 105.109L563.2 100.465L548.956 111.728Z" fill="#96D9C9"/>
<path d="M499.666 126.339C499.82 125.719 500.014 125.119 500.246 124.52C500.459 123.978 500.691 123.416 500.962 122.875L501.543 123.165C501.291 123.687 501.059 124.21 500.846 124.752C500.633 125.332 500.44 125.913 500.285 126.513C500.246 126.687 500.207 126.861 500.169 127.035L499.53 126.9C499.588 126.706 499.627 126.513 499.666 126.339ZM503.246 119.294C504.097 118.23 505.065 117.185 506.149 116.217L506.574 116.701C505.51 117.649 504.562 118.656 503.749 119.701L503.246 119.294ZM523.798 120.456C523.759 120.436 523.721 120.397 523.701 120.378L524.127 119.894C524.166 119.914 524.185 119.952 524.204 119.972C524.204 119.972 524.224 119.991 524.262 119.991C524.611 120.127 525.52 120.223 526.082 119.991C526.546 119.778 526.952 119.43 527.262 118.927L527.804 119.275C527.417 119.875 526.914 120.32 526.333 120.572C525.559 120.92 524.456 120.746 524.03 120.591C523.933 120.552 523.856 120.514 523.798 120.456ZM509.497 113.643C510.638 112.889 511.877 112.173 513.154 111.534L513.444 112.115C512.187 112.734 510.987 113.431 509.864 114.185L509.497 113.643ZM521.824 115.134C521.901 114.514 522.056 113.895 522.288 113.276C522.405 112.947 522.559 112.618 522.734 112.269L523.314 112.56C523.159 112.869 523.024 113.179 522.908 113.489C522.695 114.05 522.559 114.63 522.482 115.192C522.443 115.598 522.424 116.004 522.463 116.411L521.824 116.469C521.766 116.024 521.785 115.579 521.824 115.134ZM525.307 112.231L525.23 112.173L525.578 111.631L525.656 111.689C526.914 112.482 527.881 113.682 528.307 114.979L527.688 115.192C527.32 114.031 526.449 112.947 525.307 112.231ZM517.257 110.373C517.992 110.237 519.347 110.025 520.024 110.083C520.566 110.121 521.05 110.179 521.514 110.237L521.418 110.876C520.973 110.799 520.489 110.76 519.986 110.721C519.54 110.683 518.573 110.799 517.373 111.012L517.257 110.373ZM525.365 108.902C526.411 107.935 527.591 107.122 528.888 106.502L529.178 107.083C527.939 107.683 526.817 108.457 525.811 109.367L525.365 108.902Z" fill="#9BC1F9"/>
<path d="M533.068 105.883C533.765 105.786 534.461 105.728 535.139 105.748L535.158 105.109C534.442 105.09 533.707 105.148 532.971 105.264L533.068 105.883Z" fill="#9BC1F9"/>
<path d="M484.841 115.521C485.229 115.541 486.293 115.889 487.86 118.85C489.854 122.624 492.776 134.022 492.776 134.022L484.067 137.273L482.945 134.893L481.106 116.586C481.106 116.566 484.745 115.521 484.841 115.521Z" fill="#A34B3D"/>
<path d="M473.327 113.876C475.823 113.876 481.977 114.612 484.841 115.521C484.841 115.521 486.951 133.577 482.945 147.298C482.055 150.375 483.68 160.032 483.68 160.032L457.884 159.703C457.884 159.703 460.941 136.344 459.78 132.571C458.619 128.797 458.6 115.637 458.6 115.637C458.6 115.637 458.774 115.618 464.405 114.631C467.037 114.186 470.675 113.876 473.327 113.876Z" fill="#B75742"/>
<path d="M470.327 193.569C470.327 193.569 470.908 200.169 471.953 201.988C472.998 203.807 471.895 206.923 471.837 207.348C471.779 207.774 469.63 208.374 466.205 208.026C462.78 207.658 462.838 206.864 463.109 205.587C463.38 204.31 465.218 202.665 465.315 201.446C465.431 200.227 464.27 195.853 464.27 195.853L470.327 193.569Z" fill="#F7A491"/>
<path d="M480.777 154.613C480.777 154.613 498.601 153.626 502.568 156.026C506.555 158.445 499.743 170.269 499.743 170.269C499.743 170.269 487.338 169.689 463.07 171.101C457.322 171.43 456.819 156.103 457.903 154.845C458.967 153.568 480.777 154.613 480.777 154.613Z" fill="#E0973F"/>
<path d="M465.779 208.529C462.257 208.161 462.683 206.419 462.973 205.103C463.147 204.271 464.153 203.303 464.773 202.394C465.082 202.645 465.605 203.09 467.134 203.536C468.721 204 470.907 203.071 472.301 202.491C472.804 204.329 472.823 206.69 472.765 207.038C472.688 207.483 469.301 208.896 465.779 208.529Z" fill="#DD513A"/>
<path d="M467.715 167.347C468.431 172.727 471.953 199.55 471.953 199.55L463.767 200.556C463.767 200.556 453.704 165.547 454.226 160.206C454.749 154.845 458.503 154.4 458.503 154.4C458.503 154.4 465.838 153.104 467.715 167.347Z" fill="#F7CC7F"/>
<path d="M458.329 117.65C460.748 116.74 461.928 138.493 462.257 147.433C466.534 147.84 473.985 147.433 475.842 147.298C476.713 147.24 478.726 146.504 479.597 146.388C480.487 146.272 481.3 146.214 481.726 146.292C481.88 146.311 486.331 148.149 486.718 148.536C487.183 149.04 488.46 150.278 488.247 150.82C488.034 151.362 485.79 149.311 485.79 149.311L484.686 148.691C486.041 150.027 488.654 151.788 488.286 152.426C487.918 153.046 485.577 151.265 483.893 150.046C485.325 151.343 487.106 153.665 486.699 154.013C486.331 154.342 484.299 151.652 482.132 150.878C481.339 150.588 480.526 151.381 479.906 151.478C479.442 151.555 478.726 151.691 478.261 151.575L475.92 150.917C475.126 150.994 475.107 151.459 474.294 151.633C473.365 151.826 471.817 152.039 470.637 152.33C463.767 154.013 461.483 154.787 459.374 154.787C453.007 154.807 452.62 119.798 458.329 117.65Z" fill="#F7A491"/>
<path d="M453.761 138.067C453.316 128.894 453.374 117.592 458.522 115.676C460.554 114.921 464.115 119.488 463.476 138.26C460.728 138.473 456.703 138.667 453.761 138.067Z" fill="#A34B3D"/>
<path d="M495.098 199.956C495.098 199.956 493.918 202.046 494.847 203.788C495.775 205.529 500.652 208.103 501.155 209.051C501.659 210 501.465 210.677 501.465 210.677L486.99 207.136L488.093 202.762L489.447 199.743L495.098 199.956Z" fill="#F7A491"/>
<path d="M495.582 204.736C495.582 204.736 491.518 205.432 489.892 204.155C488.286 202.859 488.383 202.626 487.783 202.858C487.396 202.994 486.815 204.736 486.448 205.955C486.254 206.613 486.641 207.29 487.299 207.445L502.375 211.18C503.516 211.393 504.271 210.677 503.516 209.767C502.994 209.129 502.317 208.645 501.968 208.316C500.865 207.29 495.582 204.736 495.582 204.736Z" fill="#DD513A"/>
<path d="M493.685 158.832C494.846 156.413 497.459 153.258 502.065 155.155C506.458 156.974 507.638 161.425 506.245 165.992C504.852 170.559 495.737 197.382 495.408 201.059L488.112 201.117C488.112 201.117 489.428 179.887 489.757 174.739C490.086 169.785 491.692 163.031 493.685 158.832Z" fill="#F7CC7F"/>
<path d="M505.51 134.138H481.145C480.506 134.138 479.926 134.525 479.674 135.125L472.166 153.491H458.735C458.367 153.491 458.058 153.8 458.058 154.168C458.058 154.536 458.367 154.845 458.735 154.845H496.975C498.02 154.845 498.988 154.226 499.414 153.258L506.961 136.364C507.426 135.319 506.671 134.138 505.51 134.138Z" fill="#184655"/>
<path d="M492.389 144.821C492.215 145.653 491.499 146.195 490.783 146.059C490.067 145.924 489.621 145.13 489.776 144.298C489.95 143.466 490.667 142.924 491.383 143.06C492.099 143.214 492.563 144.008 492.389 144.821Z" fill="white"/>
<path d="M479.132 91.8144C478.397 91.5628 477.681 91.2919 476.984 90.9436C476.191 90.5565 475.165 90.1114 474.526 90.0146C473.172 89.8018 470.83 89.9372 469.533 91.35C467.927 93.0917 465.063 91.6596 465.644 100.794C466.302 111.128 472.049 110.006 472.185 109.812C472.32 109.638 477.313 103.194 477.313 103.194C477.313 103.194 479.055 107.006 479.055 106.871C479.055 106.774 487.957 94.7947 479.132 91.8144Z" fill="#0E2E35"/>
<path d="M474.759 110.605L475.262 114.302C475.262 114.302 476.365 119.624 474.953 120.649C473.521 121.675 468.876 114.147 468.876 114.147L469.36 104.78L474.759 110.605Z" fill="#F7A491"/>
<path d="M469.185 107.819C470.366 111.012 473.172 112.966 475.185 113.74L474.759 110.605L469.34 104.78L469.185 107.819Z" fill="#F47458"/>
<path d="M474.469 94.6015C477.507 94.1177 480.216 96.5561 480.139 99.5751C480.1 100.891 480.003 102.536 479.732 104.316C479.075 108.574 476.172 112.328 474.236 111.999C472.321 111.67 467.482 107.993 468.334 101.917C468.856 98.1817 471.295 95.1047 474.469 94.6015Z" fill="#F7A491"/>
<path d="M469.65 102.652C469.495 103.581 468.74 104.239 467.966 104.103C467.211 103.968 466.708 103.097 466.882 102.168C467.037 101.239 467.792 100.581 468.566 100.717C469.34 100.833 469.824 101.704 469.65 102.652Z" fill="#F7A491"/>
<path d="M468.566 100.697C468.566 100.697 470.888 101.278 471.759 99.7876C472.63 98.2975 475.707 95.0656 479.636 96.4009C483.564 97.7362 476.191 93.1497 475.862 93.1497C475.552 93.1497 471.779 93.1304 471.779 93.1304C471.779 93.1304 468.876 95.5107 468.779 95.7817C468.682 96.0526 467.831 98.8974 467.831 98.8974L468.566 100.697Z" fill="#0E2E35"/>
<path d="M472.824 106.948L477.062 107.761C477.062 107.761 476.656 109.348 474.778 109.057C472.495 108.67 472.824 106.948 472.824 106.948Z" fill="white"/>
<path d="M522.056 398.318C522.056 398.318 521.282 403.717 519.947 405.459C519.501 406.039 518.689 406.775 518.147 407.839C517.315 409.484 517.779 411.942 518.398 413.277C518.708 413.974 518.379 413.974 519.095 414.187C521.224 414.845 523.488 413.742 524.398 411.69C524.901 410.549 525.346 409.02 525.443 407.085C525.675 402.188 527.184 399.692 527.184 399.692L522.056 398.318Z" fill="#F7A491"/>
<path d="M545.356 400.776C545.356 400.776 545.84 406.872 545.453 408.846C545.24 409.91 544.079 412.097 544.621 413.084C545.143 414.09 545.763 414.323 545.763 414.323L559.522 414.555C560.277 414.574 559.774 414.09 559.174 413.626C558.187 412.89 557.394 412.407 554.22 410.878C554.007 410.781 553.271 410.297 553.001 410.123C552.323 409.697 551.627 409.039 551.027 408.381C550.04 407.278 549.943 401.918 549.943 401.918L545.356 400.776Z" fill="#F7A491"/>
<path d="M556.116 319.805C556.116 319.805 557.858 329.694 556.716 336.177C555.575 342.66 550.117 402.769 550.117 402.769L544.041 403.117C544.041 403.117 542.763 378.017 542.996 374.514C543.228 371.031 545.028 365.187 545.028 365.187L544.428 344.905L552.091 318.276L556.116 319.805Z" fill="#E25A44"/>
<path d="M538.293 317.715C538.293 317.715 533.512 324.953 532.371 330.933C531.229 336.913 533.203 355.317 531.016 363.154C529.836 367.393 525.346 373.953 524.649 379.449C523.972 384.945 521.282 399.305 521.282 399.305L527.339 400.505L541.428 364.606L552.478 332.152L555.303 315.451L538.293 317.715Z" fill="#F47458"/>
<path d="M524.804 410.626C521.495 411.226 519.308 409.29 518.147 407.839C517.315 409.484 516.889 411.942 517.508 413.296C518.05 414.496 519.637 414.457 520.895 414.496C522.211 414.554 523.237 413.799 523.895 412.638C524.224 412.096 524.533 411.419 524.804 410.626Z" fill="#F7CC7F"/>
<path d="M553 410.142C549.362 411.09 546.672 410.452 545.163 409.833C544.776 410.936 544.253 412.329 544.524 413.122C544.853 414.109 545.337 414.322 545.763 414.342C549.091 414.438 557.935 414.555 560.47 414.574C560.819 414.574 561.012 414.167 560.799 413.897C560.161 413.142 553.271 410.316 553 410.142Z" fill="#F7CC7F"/>
<path d="M577.907 302.717C578.159 302.175 575.488 301.44 575.411 300.859C575.333 300.279 578.913 300.608 579.087 300.124C579.416 299.234 575.178 299.524 575.314 299.098C575.449 298.672 579.784 298.169 579.416 297.376C579.029 296.602 574.965 298.382 574.888 297.879C574.83 297.376 578.817 296.563 578.875 295.46C578.894 294.879 572.217 297.705 571.501 297.318C570.785 296.931 572.604 294.338 572.063 293.873C571.521 293.409 569.179 298.808 568.753 298.982C568.328 299.137 559.154 301.904 556.039 302.369C555.768 301.304 553.426 295.499 553.194 294.512C551.355 295.557 549.033 294.299 547.156 295.228C548.104 298.556 550.214 309.51 551.065 310.013C553.639 311.522 567.205 304.343 569.45 303.085C571.695 301.808 572.837 302.427 574.307 302.098C575.759 301.749 577.655 303.259 577.907 302.717Z" fill="#F38B80"/>
<path d="M553.755 270.418C554.433 267.321 555.11 264.186 553.31 260.78C551.859 258.013 549.343 256.426 546.421 256.097C538.177 255.11 539.938 262.832 528.404 264.496C524.824 265.019 521.495 265.522 518.495 267.302C513.096 270.515 511.045 275.682 514.644 284.1C523.411 304.691 544.408 286.79 547.621 283.152C550.794 279.533 553.31 272.411 553.755 270.418Z" fill="#0E2E35"/>
<path d="M540.77 280.21C540.77 280.21 536.609 280.674 534.113 283.403C531.616 286.112 538.138 307.903 538.602 311.367C539.047 314.812 534.267 324.372 534.267 324.372C534.267 324.372 550.543 327.604 554.781 324.817C554.781 324.817 555.149 298.15 554.704 295.673C554.258 293.215 550.465 283.19 549.575 282.203C548.627 281.197 540.77 280.21 540.77 280.21Z" fill="#F7CC7F"/>
<path d="M542.86 271.811C542.86 271.811 542.821 272.004 542.763 272.314C542.473 273.823 541.408 278.836 540.673 280.229C539.783 281.893 543.692 287.215 547.465 286.557C548.588 286.364 546.517 281.68 546.614 281.177C546.807 280.229 547.059 278.932 547.33 277.597C547.485 276.842 547.62 276.088 547.775 275.372C548.181 273.34 548.51 271.675 548.51 271.675L542.86 271.811Z" fill="#F7A491"/>
<path opacity="0.5" d="M542.782 272.314C542.84 272.004 542.879 271.811 542.879 271.811L548.511 271.675C548.511 271.675 548.182 273.34 547.775 275.372C547.64 276.088 547.485 276.842 547.33 277.578C546.459 277.442 545.55 277.036 544.64 276.223C543.653 275.352 542.995 274.307 542.608 273.204C542.666 272.856 542.724 272.546 542.782 272.314Z" fill="#F47458"/>
<path d="M546.247 258.419C546.247 258.419 543.944 258.729 542.279 260.897C540.615 263.045 538.815 269.683 542.957 273.302C547.098 276.92 551.181 272.818 551.781 268.483C552.381 264.148 552.285 258.265 546.247 258.419Z" fill="#F7A491"/>
<path d="M553 267.418C552.749 268.463 552.052 269.179 551.472 269.005C550.891 268.831 550.62 267.844 550.891 266.799C551.143 265.754 551.839 265.037 552.42 265.212C553 265.366 553.271 266.373 553 267.418Z" fill="#F7A491"/>
<path d="M548.801 258.438C548.801 258.438 543.402 264.631 540.867 264.922C538.332 265.212 538.003 268.579 538.003 268.579C538.003 268.579 538.912 260.838 541.428 259.348C543.925 257.858 548.801 258.438 548.801 258.438Z" fill="#0E2E35"/>
<path d="M541.699 266.431C541.912 267.554 541.486 268.579 540.77 268.734C540.054 268.889 539.299 268.096 539.086 266.973C538.873 265.851 539.299 264.825 540.015 264.67C540.751 264.515 541.486 265.309 541.699 266.431Z" fill="#F7A491"/>
<path d="M541.621 297.898L559.077 300.453C559.6 300.53 559.967 301.014 559.89 301.537L556.484 324.818C556.406 325.34 555.923 325.708 555.4 325.63L537.944 323.076C537.422 322.999 537.054 322.515 537.131 321.992L540.537 298.711C540.615 298.189 541.099 297.821 541.621 297.898Z" fill="#184655"/>
<path d="M554.646 299.039C554.665 298.942 554.587 298.826 554.491 298.826L547.214 297.762C547.117 297.742 547.001 297.82 547.001 297.917L546.885 298.671L554.549 299.794L554.646 299.039Z" fill="#13375B"/>
<path d="M550.969 297.356C550.33 297.26 549.749 297.705 549.653 298.343C549.556 298.982 550.001 299.563 550.64 299.659C551.278 299.756 551.859 299.311 551.956 298.672C552.033 298.053 551.607 297.453 550.969 297.356ZM550.698 299.253C550.291 299.195 550.001 298.808 550.078 298.401C550.136 297.995 550.523 297.705 550.93 297.782C551.336 297.84 551.627 298.227 551.549 298.634C551.472 299.021 551.104 299.311 550.698 299.253Z" fill="#13375B"/>
<path d="M554.549 298.847C554.607 298.885 554.646 298.963 554.646 299.04L554.53 299.795L546.866 298.672C546.789 299.195 547.156 299.679 547.679 299.756L553.446 300.608C553.968 300.685 554.452 300.317 554.53 299.795L554.646 299.04C554.646 298.963 554.607 298.885 554.549 298.847Z" fill="#355389"/>
<path d="M549.207 270.631L545.279 270.611C545.279 270.611 545.356 272.101 547.079 272.16C549.207 272.237 549.207 270.631 549.207 270.631Z" fill="white"/>
<path d="M529.371 303.858L535.7 304.497C535.7 304.497 535.603 309.857 535.7 310.476C535.7 310.476 546.518 313.476 551.027 314.289C551.027 314.289 553.078 313.128 553.91 312.76C554.742 312.392 556.987 311.986 557.471 311.928C557.974 311.87 557.8 312.412 557.374 312.586C556.948 312.76 555.845 313.302 555.536 313.921C555.536 313.921 556.426 314.018 556.91 313.805C557.374 313.592 558.032 313.147 558.052 312.915C558.071 312.683 558.168 312.121 558.323 312.16C558.361 312.16 558.419 312.354 558.477 312.547C558.535 312.721 558.574 312.915 558.632 313.089C558.71 313.418 558.806 313.902 558.845 314.115C558.922 314.598 558.632 315.973 558.574 316.456C558.497 317.347 558.245 317.734 557.781 317.946C557.026 318.217 556.232 318.372 555.071 318.488C552.923 318.701 550.949 318.101 550.078 317.985C549.208 317.888 535.448 316.514 535.448 316.514C535.448 316.514 529.971 315.721 529.604 314.792C529.236 313.882 529.371 303.858 529.371 303.858Z" fill="#F7A491"/>
<path d="M534.867 282.61C534.867 282.61 532.874 283.558 531.113 287.641C529.449 291.531 528.965 310.903 528.965 310.903L535.583 309.8L538.951 300.762C541.35 295.344 540.731 289.054 537.228 284.274C536.299 283.016 535.448 282.242 534.867 282.61Z" fill="#F7CC7F"/>
<path opacity="0.6" d="M667.238 189.486H639.157V217.567H667.238V189.486Z" fill="#9BC1F9"/>
<path opacity="0.6" d="M726.979 189.486H672.211V193.299H726.979V189.486Z" fill="#9BC1F9"/>
<path opacity="0.6" d="M709.175 197.575H672.211V201.388H709.175V197.575Z" fill="#9BC1F9"/>
<path opacity="0.6" d="M721.405 205.665H672.211V209.477H721.405V205.665Z" fill="#9BC1F9"/>
<path d="M745.828 282.687C744.686 281.758 735.804 285.648 735.92 287.003C736.036 288.357 729.727 301.498 729.727 301.498L718.832 292.808C718.735 292.499 717.709 289.112 717.651 288.512C717.593 287.874 715.755 286.771 714.903 286.925C714.052 287.08 715.638 288.164 715.735 288.357C716.025 288.899 714.922 289.093 714.922 289.093C714.922 289.093 711.807 288.086 711.749 287.08C711.691 286.054 709.562 288.861 709.813 289.248C710.065 289.635 715.135 293.718 715.871 294.608C715.871 294.608 729.959 310.729 730.966 311.135C731.836 311.503 734.991 305.949 737.952 302.272C740.893 298.614 749.408 285.609 745.828 282.687Z" fill="#F7A491"/>
<path d="M774.256 401.163C774.256 401.163 776.192 403.059 776.23 403.736C776.269 404.433 776.405 411.864 775.611 412.561C774.818 413.258 772.495 413.742 773.25 414.535C773.811 415.116 778.146 415 781.03 414.845C781.862 414.806 782.926 408.091 783.255 407.104C783.739 405.672 784.92 402.459 784.475 401.453C784.262 400.969 783.236 399.963 781.784 399.034C780.275 398.047 778.824 395.879 778.824 395.879L774.256 401.163Z" fill="#F48C7F"/>
<path d="M754.188 405.556C754.188 405.556 755.93 410.452 755.93 410.472C756.065 411.246 756.568 413.162 756.568 413.878C756.568 416.529 744.628 411.633 747.299 410.452C747.55 410.356 748.305 409.504 748.382 408.595C748.498 407.201 747.376 405.459 747.376 405.459L754.188 405.556Z" fill="#F7A491"/>
<path d="M735.455 314.386C735.455 314.386 734.584 323.172 734.584 323.288C734.584 337.493 731.778 365.225 732.301 367.896C733.597 374.398 747.666 407.626 747.666 407.626L755.253 406.717L747.105 366.58L749.002 350.943L754.15 319.302L735.455 314.386Z" fill="#50BFA5"/>
<path d="M760.943 322.147L762.375 330.468L766.265 364.703L781.108 398.163C781.108 398.163 779.018 403.04 775.941 403.717L752.331 369.367L737.642 325.398L738.165 315.625L760.943 322.147Z" fill="#96D9C9"/>
<path d="M732.417 293.487L742.945 294.57C742.945 294.57 743.429 285.939 743.429 281.817C743.429 276.824 743.003 270.38 742.403 270.515C740.7 270.902 738.436 271.831 737.062 273.708C732.378 280.172 732.417 293.487 732.417 293.487Z" fill="#B75742"/>
<path d="M737.604 280.927C737.391 282.455 733.327 323.87 733.327 323.87C752.505 333.139 763.091 325.515 763.091 325.515C763.091 325.515 762.471 296.428 763.207 292.48C763.71 289.867 764.329 272.45 762.626 271.966C760.439 271.347 757.943 270.67 755.234 270.399C752.911 270.167 743.893 270.012 742.267 270.554C742.267 270.554 738.532 274.521 737.604 280.927Z" fill="#F47458"/>
<path d="M781.707 398.977C781.707 398.977 777.237 411.536 775.495 412.156C775.031 412.31 772.805 412.717 772.379 413.704C772.244 413.994 772.379 415 772.379 415H781.688C781.688 415 782.868 409.466 783.333 407.027C783.333 407.027 785.791 401.086 785.52 400.544C785.249 400.002 781.707 398.977 781.707 398.977Z" fill="#F47458"/>
<path d="M757.246 414.749L755.872 410.433C755.872 410.433 753.008 411.652 751.556 411.439C750.124 411.246 747.318 410.433 747.318 410.433C741.59 412.33 736.887 413.239 737.738 414.749H757.246Z" fill="#F47458"/>
<path d="M730.946 311.155C730.907 311.136 730.752 311.019 730.656 310.942C731.004 306.878 730.927 302.95 729.669 301.614C729.707 301.556 729.978 300.956 730.269 300.337C731.739 301.479 732.455 304.517 732.165 309.433C732.146 309.762 732.049 310.032 731.972 310.458C731.546 310.942 731.159 311.252 730.946 311.155Z" fill="#F7A491"/>
<path d="M752.679 262.387L753.917 270.535C753.917 270.535 749.408 280.23 746.699 279.398C744.435 278.701 745.828 270.109 745.828 270.109C745.828 270.109 747.067 265.503 746.699 263.2C746.331 260.897 752.679 262.387 752.679 262.387Z" fill="#F7A491"/>
<path d="M746.699 263.2C746.331 260.897 752.678 262.406 752.678 262.406L752.775 263.083C752.582 263.529 752.369 263.916 752.079 264.225C750.666 265.754 748.44 266.664 746.524 266.741C746.718 265.464 746.834 264.148 746.699 263.2Z" fill="#F47458"/>
<path d="M753.724 250.872C753.898 250.814 755.156 260.142 752.776 262.716C750.395 265.289 745.732 266.122 744.067 264.109C742.229 261.864 742.306 251.82 746.022 249.188C749.718 246.537 753.724 250.872 753.724 250.872Z" fill="#F7A491"/>
<path d="M747.415 244.176C750.279 244.757 752.137 246.518 752.833 247.272C754.13 247.427 755.91 248.143 757.73 251.182C759.974 254.917 758.31 259.039 755.698 261.051C753.085 263.083 753.124 265.425 753.124 265.425L752.717 264.206C752.408 263.296 752.292 262.309 752.388 261.361C752.446 260.78 752.582 260.161 752.814 259.639C753.453 258.284 751.459 257.394 750.898 256.271C750.472 255.4 750.453 253.426 749.776 251.994L748.963 250.911C748.963 250.911 747.105 249.459 745.286 249.866C743.486 250.253 743.738 243.421 747.415 244.176Z" fill="#0E2E35"/>
<path d="M751.034 257.916C751.014 259.058 751.537 259.987 752.195 260.006C752.853 260.026 753.395 259.097 753.414 257.955C753.433 256.813 752.911 255.884 752.253 255.865C751.595 255.865 751.053 256.794 751.034 257.916Z" fill="#F7A491"/>
<path d="M747.144 260.568L743.544 260.374C743.544 260.374 743.564 261.748 745.131 261.884C747.066 262.038 747.144 260.568 747.144 260.568Z" fill="white"/>
<path d="M717.67 281.856C718.522 280.985 719.296 280.095 720.031 279.185L735.745 294.532C736.713 295.48 736.384 297.376 735.01 298.789C733.636 300.202 731.739 300.569 730.772 299.641L715.058 284.294C715.948 283.539 716.819 282.727 717.67 281.856Z" fill="#0E2E35"/>
<path opacity="0.6" d="M717.36 281.559C732.663 265.894 732.296 240.716 716.539 225.323C700.783 209.93 675.603 210.15 660.3 225.815C644.996 241.48 645.364 266.657 661.12 282.051C676.877 297.444 702.056 297.224 717.36 281.559Z" fill="#C5DDF9"/>
<path d="M717.419 281.139C710.897 288.067 701.975 292.596 692.183 293.486L649.182 249.769C649.182 249.691 649.201 249.594 649.201 249.517C650.266 239.531 654.91 230.803 661.703 224.494L717.419 281.139Z" fill="white"/>
<path d="M688.487 213.87L728.256 254.297C728.236 255.516 728.159 256.755 728.023 257.993C727.424 263.644 725.663 268.889 723.031 273.533L669.328 218.94C675.056 215.728 681.597 213.909 688.487 213.87Z" fill="white"/>
<path d="M657.503 285.764C675.327 303.162 703.794 302.91 721.095 285.203C738.396 267.495 737.971 239.028 720.147 221.63C702.324 204.232 673.856 204.484 656.555 222.191C639.273 239.899 639.699 268.347 657.503 285.764ZM661.122 282.048C645.35 266.663 644.982 241.466 660.29 225.81C675.598 210.135 700.775 209.922 716.528 225.326C732.3 240.711 732.668 265.908 717.36 281.564C702.072 297.24 676.894 297.453 661.122 282.048Z" fill="#184655"/>
<path opacity="0.5" d="M659.42 283.81C676.159 300.162 702.904 299.93 719.141 283.287C735.397 266.644 734.991 239.918 718.251 223.565C701.511 207.213 674.766 207.445 658.529 224.088C642.273 240.731 642.68 267.457 659.42 283.81ZM661.123 282.048C645.35 266.663 644.983 241.466 660.29 225.81C675.598 210.135 700.776 209.922 716.528 225.327C732.301 240.712 732.668 265.909 717.361 281.565C702.072 297.24 676.895 297.453 661.123 282.048Z" fill="#50BFA5"/>
<path d="M784.591 349.24L787.029 346.705C789.468 344.17 789.39 340.144 786.874 337.706L741.493 293.699C738.958 291.26 734.933 291.338 732.494 293.873L730.056 296.408C727.617 298.943 727.695 302.968 730.23 305.407L775.611 349.414C778.108 351.833 782.152 351.756 784.591 349.24Z" fill="#184655"/>
<path d="M782.075 324.314C782.094 324.217 782.094 324.14 782.075 324.043C781.785 321.179 779.404 297.085 779.017 296.059C778.65 295.13 767.967 279.861 767.967 279.861L762.723 287.022L772.999 300.723C773.231 301.594 776.927 317.85 776.927 317.85C776.927 317.85 777.682 320.811 778.03 322.591C777.876 323.017 777.721 323.424 777.585 323.753C777.237 324.469 776.85 325.049 776.482 325.533C776.018 326.152 775.263 327.488 775.166 327.855C775.05 328.281 774.857 329.152 774.76 329.674C774.644 330.197 774.489 330.816 774.47 331.087C774.45 331.261 774.276 331.61 774.141 331.842C773.928 332.21 774.276 332.635 774.682 332.5C775.05 332.384 775.34 331.9 775.534 331.59C776.037 330.739 776.308 329.191 776.444 329.268C776.56 329.345 777.005 331.977 777.082 332.287C777.16 332.577 777.682 335.635 777.992 336.196C778.282 336.757 778.688 336.661 778.785 336.312C778.882 336.003 778.456 331.726 778.456 331.726C778.456 331.726 778.398 331.184 778.65 331.358C778.882 331.532 779.288 335.403 779.443 335.983C779.617 336.545 779.985 336.854 780.314 336.39C780.701 335.828 780.024 331.726 780.024 331.726C780.024 331.726 779.946 331.203 780.179 331.261C780.411 331.319 780.682 334.609 780.856 334.9C781.03 335.19 781.456 335.287 781.669 334.803C781.92 334.242 781.282 330.565 781.282 330.565C781.282 330.565 781.32 330.274 781.456 330.371C781.591 330.468 782.036 333.274 782.307 333.526C782.54 333.738 782.752 333.526 782.752 333.526C783.275 333.177 782.481 330.507 782.481 329.171C782.481 327.836 781.882 326.346 782.056 324.778C782.036 324.701 782.056 324.469 782.075 324.314Z" fill="#F8A492"/>
<path d="M776.327 289.538L767.212 295.673C767.212 295.673 762.065 288.029 759.317 285.3C755.853 281.894 760.575 271.424 762.8 272.024C767.774 273.34 776.327 289.538 776.327 289.538Z" fill="#F47458"/>
</svg>
